<svg height='100px' width='100px'  fill="#000000" xmlns="http://www.w3.org/2000/svg" xmlns:xlink="http://www.w3.org/1999/xlink" version="1.1" x="0px" y="0px" viewBox="0 0 100 100" enable-background="new 0 0 100 100" xml:space="preserve"><g><path fill="none" d="M35,21H19c-1.104,0-2,0.896-2,2s0.896,2,2,2h16c1.104,0,2-0.896,2-2S36.104,21,35,21z"></path><circle fill="none" cx="57.567" cy="21.833" r="2.8"></circle><circle fill="none" cx="67.567" cy="21.833" r="2.8"></circle><circle fill="none" cx="77.567" cy="21.833" r="2.8"></circle><path d="M79,13H20c-4.418,0-8,3.082-8,7.5V29h75v-8.5C87,16.082,83.418,13,79,13z M35,25H19c-1.104,0-2-0.896-2-2s0.896-2,2-2h16   c1.104,0,2,0.896,2,2S36.104,25,35,25z M57.567,24.633c-1.546,0-2.8-1.253-2.8-2.8c0-1.546,1.253-2.8,2.8-2.8s2.8,1.254,2.8,2.8   C60.367,23.379,59.113,24.633,57.567,24.633z M67.567,24.633c-1.546,0-2.8-1.253-2.8-2.8c0-1.546,1.253-2.8,2.8-2.8   s2.8,1.254,2.8,2.8C70.367,23.379,69.113,24.633,67.567,24.633z M77.567,24.633c-1.546,0-2.8-1.253-2.8-2.8   c0-1.546,1.253-2.8,2.8-2.8s2.8,1.254,2.8,2.8C80.367,23.379,79.113,24.633,77.567,24.633z"></path><path d="M12,33v46.5c0,4.418,3.582,8.5,8,8.5h59c4.418,0,8-4.082,8-8.5V33H12z M38.01,67.672c0.781,0.781,0.781,2.047,0,2.828   c-0.39,0.391-0.902,0.586-1.414,0.586s-1.023-0.195-1.414-0.586l-9.625-9.624c-0.375-0.375-0.586-0.884-0.586-1.414   s0.211-1.039,0.586-1.414l9.625-9.624c0.781-0.781,2.048-0.781,2.828,0c0.781,0.781,0.781,2.047,0,2.828l-8.21,8.209L38.01,67.672z    M54.493,50.588l-6.702,19.076c-0.289,0.823-1.062,1.337-1.887,1.337c-0.22,0-0.444-0.037-0.663-0.114   c-1.042-0.366-1.59-1.507-1.224-2.55l6.702-19.076c0.366-1.042,1.507-1.59,2.55-1.224C54.312,48.404,54.859,49.545,54.493,50.588z    M74.442,60.876L64.818,70.5c-0.39,0.391-0.902,0.586-1.414,0.586S62.38,70.891,61.99,70.5c-0.781-0.781-0.781-2.047,0-2.828   l8.21-8.21l-8.21-8.209c-0.781-0.781-0.781-2.047,0-2.828c0.78-0.781,2.047-0.781,2.828,0l9.625,9.624   c0.375,0.375,0.586,0.884,0.586,1.414S74.817,60.501,74.442,60.876z"></path></g></svg>