<svg height='100px' width='100px'  fill="#000000" xmlns="http://www.w3.org/2000/svg" viewBox="0 0 100 100" x="0px" y="0px"><title>•SET17-Abstract-Concepts-Flat-v1</title><path d="M51.392,49.888a1.764,1.764,0,0,0-2.784,0L39.731,62.542a1.7,1.7,0,0,0,1.392,2.677H58.877a1.7,1.7,0,0,0,1.392-2.677Zm-7,11.93L50,53.824l5.607,7.994Zm7-44.178a1.763,1.763,0,0,0-2.784,0L29.773,44.488a1.7,1.7,0,0,0,1.392,2.677h37.67a1.7,1.7,0,0,0,1.392-2.677ZM34.435,43.764,50,21.576,65.565,43.764ZM50,9.269A40.731,40.731,0,1,0,90.731,50,40.777,40.777,0,0,0,50,9.269ZM13.476,57.718A69.184,69.184,0,0,1,47.792,79.305a71.766,71.766,0,0,0-5.117,7.3A37.437,37.437,0,0,1,13.476,57.718ZM50,87.331c-1.232,0-2.448-.064-3.65-.181Q48.06,84.483,50,82q1.938,2.486,3.65,5.154C52.448,87.267,51.232,87.331,50,87.331Zm7.325-.726a71.766,71.766,0,0,0-5.117-7.3A69.184,69.184,0,0,1,86.524,57.718,37.437,37.437,0,0,1,57.325,86.605ZM50,76.666A72.54,72.54,0,0,0,12.893,54.057,37.751,37.751,0,0,1,12.669,50a37.331,37.331,0,0,1,74.662,0,37.751,37.751,0,0,1-.224,4.057A72.54,72.54,0,0,0,50,76.666Z"></path></svg>