<svg height='100px' width='100px'  fill="#000000" xmlns="http://www.w3.org/2000/svg" xmlns:xlink="http://www.w3.org/1999/xlink" version="1.1" x="0px" y="0px" viewBox="0 0 64 64" style="enable-background:new 0 0 64 64;" xml:space="preserve"><path d="M56,2H8C5.2,2,3,4.2,3,7v11c0,2.5,1.2,4.8,3,6.2V57c0,2.8,2.2,5,5,5h42c2.8,0,5-2.2,5-5V24.2c1.8-1.5,3-3.7,3-6.2V7  C61,4.2,58.8,2,56,2z M59,7v9H47V4h9C57.7,4,59,5.3,59,7z M34,56v-4h6v4H34z M8,40h4v4H8V40z M40,50h-2v-4h2V50z M28,50v-4h8v4H28z   M18,50v-4h8v4H18z M40,44h-6v-4h6V44z M32,44h-8v-4h8V44z M22,44h-8v-4h8V44z M8,46h8v4H8V46z M8,52h4v4H8V52z M14,52h8v4h-8V52z   M24,52h8v4h-8V52z M39,24c-3.3,0-6-2.7-6-6h12C45,21.3,42.3,24,39,24z M31,16H19V4h12V16z M33,4h12v12H33V4z M31,18  c0,3.3-2.7,6-6,6s-6-2.7-6-6H31z M5,7c0-1.7,1.3-3,3-3h9v12H5V7z M5,18h12c0,3.3-2.7,6-6,6S5,21.3,5,18z M11,26c3,0,5.6-1.7,7-4.1  c1.4,2.5,4,4.1,7,4.1s5.6-1.7,7-4.1c1.4,2.5,4,4.1,7,4.1c0.3,0,0.7,0,1-0.1V38H8V25.4C8.9,25.8,9.9,26,11,26z M53,60H11  c-1.3,0-2.4-0.8-2.8-2h47.6C55.4,59.2,54.3,60,53,60z M56,56H42V25.4c1.7-0.7,3.1-2,4-3.5c1.4,2.5,4,4.1,7,4.1c1.1,0,2.1-0.2,3-0.6  V56z M53,24c-3.3,0-6-2.7-6-6h12C59,21.3,56.3,24,53,24z"></path><circle cx="46" cy="39" r="2"></circle></svg>